<svg xmlns="http://www.w3.org/2000/svg" viewBox="0 0 64 64">
  <defs>
    <linearGradient id="grad" x1="0%" y1="0%" x2="100%" y2="100%">
      <stop offset="0%" stop-color="#4f46e5"/>
      <stop offset="100%" stop-color="#0ea5e9"/>
    </linearGradient>
  </defs>
  <rect width="64" height="64" rx="14" fill="url(#grad)"/>
  <path fill="#fff" d="M21 18h22a3 3 0 0 1 3 3v22a3 3 0 0 1-3 3H21a3 3 0 0 1-3-3V21a3 3 0 0 1 3-3Zm2.5 8v9.5c0 .83.67 1.5 1.5 1.5h10c.83 0 1.5-.67 1.5-1.5V26h-13Zm0-2h13V23H23.5Zm0 15V32.5h13V32h-13v7Z"/>
</svg>